HIERARCHY
ROOT Hips
{
	OFFSET 0.00000 0.00000 0.00000
	CHANNELS 6 Xposition Yposition Zposition Zrotation Yrotation Xrotation 
	JOINT LHipJoint
	{
		OFFSET 0 0 0
		CHANNELS 3 Zrotation Yrotation Xrotation
		JOINT LeftHip
		{
			OFFSET 1.61024 -1.73873 0.75100
			CHANNELS 3 Zrotation Yrotation Xrotation
			JOINT LeftKnee
			{
				OFFSET 2.29819 -6.31424 0.00000
				CHANNELS 3 Zrotation Yrotation Xrotation
				JOINT LeftAnkle
				{
					OFFSET 2.76618 -7.60002 0.00000
					CHANNELS 3 Zrotation Yrotation Xrotation
					JOINT LeftToe
					{
						OFFSET 0.16838 -0.46263 2.02361
						CHANNELS 3 Zrotation Yrotation Xrotation
						End Site
						{
							OFFSET 0.00000 -0.00000 1.04662
						}
					}
				}
			}
		}
	}
	JOINT RHipJoint
	{
		OFFSET 0 0 0
		CHANNELS 3 Zrotation Yrotation Xrotation
		JOINT RightHip
		{
			OFFSET -1.46153 -1.73873 0.75100
			CHANNELS 3 Zrotation Yrotation Xrotation
			JOINT RightKnee
			{
				OFFSET -2.38373 -6.54924 0.00000
				CHANNELS 3 Zrotation Yrotation Xrotation
				JOINT RightAnkle
				{
					OFFSET -2.80314 -7.70157 0.00000
					CHANNELS 3 Zrotation Yrotation Xrotation
					JOINT RightToe
					{
						OFFSET -0.16142 -0.44349 2.02101
						CHANNELS 3 Zrotation Yrotation Xrotation
						End Site
						{
							OFFSET -0.00000 -0.00000 1.04381
						}
					}
				}
			}
		}
	}
	JOINT lowerback
	{
		OFFSET 0 0 0
		CHANNELS 3 Zrotation Yrotation Xrotation
		JOINT Chest
		{
			OFFSET -0.01629 1.66985 0.14750
			CHANNELS 3 Zrotation Yrotation Xrotation
			JOINT Chest2
			{
				OFFSET 0.02086 1.62378 0.20980
				CHANNELS 3 Zrotation Yrotation Xrotation
				JOINT lowerneck
				{
					OFFSET 0 0 0
					CHANNELS 3 Zrotation Yrotation Xrotation
					JOINT Neck
					{
						OFFSET -0.05690 1.78719 0.08702
						CHANNELS 3 Zrotation Yrotation Xrotation
						JOINT Head
						{
							OFFSET 0.16035 1.73871 -0.38470
							CHANNELS 3 Zrotation Yrotation Xrotation
							End Site
							{
								OFFSET 0.05645 1.80914 -0.14081
							}
						}
					}
				}
				JOINT LeftCollar
				{
					OFFSET 0 0 0
					CHANNELS 3 Zrotation Yrotation Xrotation
					JOINT LeftShoulder
					{
						OFFSET 2.83089 1.66494 -0.46008
CHANNELS 3 Zrotation Xrotation Yrotation
						JOINT LeftElbow
						{
OFFSET 0 -5.548930 -0.000000
CHANNELS 3 Zrotation Xrotation Yrotation
							JOINT LeftWrist
							{
OFFSET 0 -3.028980 -0.000000
CHANNELS 3 Zrotation Xrotation Yrotation
								JOINT lhand
								{
									OFFSET 0 0 0
CHANNELS 3 Zrotation Xrotation Yrotation
									JOINT LFingers
									{
OFFSET 0 -0.640950 -0.000000
CHANNELS 3 Zrotation Xrotation Yrotation
										End Site
										{
OFFSET 0 -0.516750 -0.000000
										}
									}
								}
								JOINT LThumb
								{
OFFSET 0 0.000000 0.000000
CHANNELS 3 Zrotation Xrotation Yrotation
									End Site
									{
OFFSET 0 -0.524640 0.524640
									}
								}
							}
						}
					}
				}
				JOINT RightCollar
				{
					OFFSET 0 0 0
					CHANNELS 3 Zrotation Yrotation Xrotation
					JOINT RightShoulder
					{
						OFFSET -2.84442 1.45761 -0.18088
CHANNELS 3 Zrotation Xrotation Yrotation
						JOINT RightElbow
						{
OFFSET 0 -5.351900 -0.000000
CHANNELS 3 Zrotation Xrotation Yrotation
							JOINT RightWrist
							{
OFFSET 0 -3.025310 -0.000000
CHANNELS 3 Zrotation Xrotation Yrotation
								JOINT rhand
								{
									OFFSET 0 0 0
CHANNELS 3 Zrotation Xrotation Yrotation
									JOINT RFingers
									{
OFFSET 0 -0.783890 -0.000000
CHANNELS 3 Zrotation Xrotation Yrotation
										End Site
										{
OFFSET 0 -0.631990 -0.000000
										}
									}
								}
								JOINT RThumb
								{
OFFSET 0 0.000000 0.000000
CHANNELS 3 Zrotation Xrotation Yrotation
									End Site
									{
OFFSET 0 -0.641640 0.641640
									}
								}
							}
						}
					}
				}
			}
		}
	}
}
MOTION
Frames: 11
Frame Time: 0.008333333333333333
0.525100 17.241600 1.512100 -179.147000 39.517500 -166.815000 0.000000 0.000000 0.000000 -3.664400 -28.050500 -28.786200 2.093800 9.058800 25.979400 0.002600 -9.072900 -6.406700 2.200500 -9.271700 -26.649100 0.000000 0.000000 0.000000 22.046200 -1.468800 -12.959600 -2.129400 -9.130500 26.204500 -0.803100 -22.907900 -36.888300 -0.052700 1.481300 -4.074100 1.765000 -0.115800 -8.277700 4.026000 1.594600 -12.635200 3.215900 1.512800 -8.888400 -5.192800 -0.972400 -4.208300 21.811700 0.906500 -6.159900 7.577500 0.791400 -1.116400 -0.000000 0.000000 0.000000 -17.484800 -43.856600 -58.705600 148.705100 -41.977800 107.733400 20.887000 -70.242300 -32.393400 0.000000 0.000000 0.000000 -7.125000 0.000000 0.000000 -13.989300 63.633100 6.383700 -0.000000 0.000000 0.000000 12.023300 -43.722300 68.208100 -149.137900 -41.621000 -108.021800 -29.948800 -79.830500 -12.299800 0.000000 0.000000 0.000000 7.125000 0.000000 -0.000000 -1.866100 15.860500 -1.285700
0.645487 17.244633 1.473072 -179.933494 38.967787 -169.224629 0.000000 0.000000 0.000000 -5.621793 -27.479591 -25.704188 1.965753 8.794377 25.154218 -0.037329 -9.877175 -6.273567 2.134236 -9.140217 -26.234849 0.000000 0.000000 0.000000 21.932041 -1.184577 -9.094947 -1.898863 -8.652162 24.713091 -0.892559 -23.963570 -38.549069 -0.007571 0.561229 -1.542081 1.598646 -0.250300 -9.802231 4.483685 1.649699 -13.258949 3.823608 1.685268 -8.773373 -5.493394 -0.715417 -4.743285 21.747699 0.992768 -4.957510 7.607634 0.911290 -0.693763 0.000000 0.000000 0.000000 -19.385524 -45.774958 -65.573311 154.795540 -36.409930 111.588080 13.229891 -71.607976 -30.516457 0.000000 0.000000 0.000000 -7.125000 0.000000 0.000000 -20.948863 59.932841 7.857099 0.000000 0.000000 0.000000 12.191589 -44.242863 69.234243 -153.624010 -37.576168 -110.883455 -17.666121 -79.979126 -14.133709 0.000000 0.000000 0.000000 7.125000 0.000000 0.000000 6.674044 15.244718 4.717643
0.757104 17.231067 1.412629 -180.340573 38.675835 -171.318746 0.000000 0.000000 0.000000 -7.173846 -26.697810 -23.397798 2.020608 8.908930 25.510766 -0.062847 -10.882839 -6.624144 2.067962 -9.006054 -25.814453 0.000000 0.000000 0.000000 21.970361 -1.318312 -5.411855 -1.666744 -8.134289 23.122840 -0.985284 -24.573723 -39.686826 -0.000362 0.123451 -0.339322 2.421008 0.173528 -11.832982 4.531917 2.202800 -13.232947 3.481058 1.939348 -7.632417 -5.604020 -0.831122 -6.803990 21.269031 0.242753 -2.230277 7.473651 0.764356 0.541557 0.000000 0.000000 0.000000 -20.900428 -45.995336 -71.512370 158.693364 -32.184556 113.787563 7.376688 -74.368735 -29.709437 0.000000 0.000000 0.000000 -7.125000 0.000000 0.000000 -26.292766 57.897583 8.693548 0.000000 0.000000 0.000000 12.039677 -44.487384 72.376891 -157.877218 -33.115277 -113.347039 -11.307638 -72.110812 -15.563876 0.000000 0.000000 0.000000 7.125000 0.000000 0.000000 10.980113 14.324673 8.074292
0.830335 17.189158 1.376050 -180.737778 38.101858 -173.496539 0.000000 0.000000 0.000000 -8.551824 -26.083950 -21.600190 2.163762 9.199096 26.420173 -0.124220 -12.262906 -6.791623 1.938580 -8.737004 -24.975919 0.000000 0.000000 0.000000 21.955244 -1.730412 -2.696862 -1.624706 -8.036176 22.824107 -1.109887 -25.119428 -40.871789 -0.000229 -0.089158 0.245041 3.231489 0.030061 -13.204842 4.647737 2.058497 -13.552837 3.178621 1.869056 -7.237499 -4.636121 -0.048291 -6.909977 20.531918 0.741822 0.198594 7.087762 1.096898 1.176481 0.000000 0.000000 0.000000 -19.959730 -45.246147 -68.433793 157.994556 -32.983193 113.411196 0.659526 -76.913577 -27.379762 0.000000 0.000000 0.000000 -7.125000 0.000000 0.000000 -31.027727 54.517978 7.825350 0.000000 0.000000 0.000000 12.349277 -43.152458 73.187593 -157.807213 -33.194192 -113.308914 -10.280508 -68.732575 -15.127038 0.000000 0.000000 0.000000 7.125000 0.000000 0.000000 11.675237 14.832959 8.477809
0.894165 17.141777 1.351949 -181.917980 37.995612 -175.992005 0.000000 0.000000 0.000000 -10.470283 -25.219363 -19.819360 2.270026 9.407162 27.077444 -0.186086 -13.374996 -6.849380 1.606167 -7.992327 -22.690894 0.000000 0.000000 0.000000 21.118619 -2.069612 -0.859512 -1.733041 -8.286296 23.586974 -1.403648 -24.989383 -42.036824 -0.008691 -0.602811 1.656522 3.157265 0.168887 -13.852833 4.466226 2.210829 -13.507290 3.057824 1.944878 -6.831402 -4.517943 -0.031669 -7.526829 20.442105 0.526695 1.399953 7.053183 1.079862 1.655625 0.000000 0.000000 0.000000 -19.366035 -46.134357 -68.396714 158.137166 -32.821676 113.488652 0.288056 -75.555018 -30.529234 0.000000 0.000000 0.000000 -7.125000 0.000000 0.000000 -33.878160 57.100555 10.888595 0.000000 0.000000 0.000000 12.195636 -43.536355 72.765998 -158.085838 -32.879825 -113.460845 -9.733084 -70.516158 -14.726099 0.000000 0.000000 0.000000 7.125000 0.000000 0.000000 12.052371 15.266896 8.649790
0.955351 17.110548 1.294277 -182.664362 37.858311 -177.585608 0.000000 0.000000 0.000000 -11.742040 -24.614747 -18.601618 2.344623 9.549802 27.530804 -0.236662 -14.246243 -6.936509 1.654183 -8.105270 -23.034302 0.000000 0.000000 0.000000 20.520271 -2.584967 0.573755 -1.756852 -8.340205 23.752215 -1.597299 -24.789786 -42.664543 -0.014966 -0.789085 2.168561 3.411717 0.413968 -14.894181 4.238331 2.510458 -13.582071 2.732352 2.089592 -6.353335 -4.552991 0.040397 -7.913972 20.278403 0.454182 2.279057 7.020850 1.096195 1.983543 0.000000 0.000000 0.000000 -19.249814 -46.594234 -68.092812 157.932616 -33.053134 113.377422 -1.117580 -76.078295 -30.718161 0.000000 0.000000 0.000000 -7.125000 0.000000 0.000000 -35.376483 56.962438 11.334688 0.000000 0.000000 0.000000 12.179704 -43.521148 72.497614 -157.896992 -33.093274 -113.357971 -9.156103 -71.198426 -14.870149 0.000000 0.000000 0.000000 7.125000 0.000000 0.000000 12.435387 15.161666 8.967409
0.998913 17.091615 1.250073 -183.205397 37.888197 -178.654247 0.000000 0.000000 0.000000 -12.642574 -23.831144 -17.837002 2.384458 9.624730 27.769847 -0.287098 -14.946182 -6.911308 1.602486 -7.983420 -22.663862 0.000000 0.000000 0.000000 20.142728 -2.624688 1.674946 -1.757671 -8.342013 23.757625 -1.496080 -25.382020 -42.845843 -0.005529 -0.478820 1.315645 3.568796 0.774403 -15.540601 3.754640 2.967212 -13.715569 2.194984 2.297545 -6.140807 -3.288305 -0.074449 -8.277890 19.473401 0.043103 3.179073 6.540430 0.954434 2.355792 0.000000 0.000000 0.000000 -18.736031 -46.254406 -68.327551 158.191155 -32.760333 113.517891 -1.577114 -75.700939 -31.083364 0.000000 0.000000 0.000000 -7.125000 0.000000 0.000000 -36.133068 57.163800 11.805175 0.000000 0.000000 0.000000 12.091469 -43.376635 71.665602 -157.734519 -33.275825 -113.269080 -8.766299 -72.543247 -14.188121 0.000000 0.000000 0.000000 7.125000 0.000000 0.000000 12.720532 15.857568 8.987748
1.025716 17.084384 1.210685 -184.069624 38.071554 -179.573962 0.000000 0.000000 0.000000 -13.711648 -23.718981 -16.993049 2.360602 9.579870 27.626694 -0.253902 -14.683943 -7.118651 1.603222 -7.985473 -22.670020 0.000000 0.000000 0.000000 19.398226 -2.509263 2.328355 -1.768616 -8.366482 23.832914 -1.486347 -25.578484 -43.009724 -0.003717 -0.394402 1.083738 3.367330 0.953007 -15.949480 3.576412 3.183055 -13.653005 2.161537 2.411444 -5.851591 -3.362410 -0.045706 -8.652472 19.271053 -0.076571 4.046570 6.502147 0.942938 2.685559 0.000000 0.000000 0.000000 -18.351248 -46.578387 -67.386112 158.158919 -32.796933 113.500459 -2.308658 -77.002554 -30.966962 0.000000 0.000000 0.000000 -7.125000 0.000000 0.000000 -36.715488 56.916222 11.803985 0.000000 0.000000 0.000000 12.005721 -43.079542 71.994464 -157.407258 -33.640491 -113.088605 -8.670944 -72.454833 -15.055889 0.000000 0.000000 0.000000 7.125000 0.000000 0.000000 12.754393 15.009127 9.252004
1.038643 17.088219 1.180492 -184.478426 38.243037 -179.897090 0.000000 0.000000 0.000000 -14.215969 -23.700180 -16.573088 2.322292 9.507436 27.395974 -0.221704 -14.305775 -7.208921 1.536134 -7.824080 -22.181285 0.000000 0.000000 0.000000 19.019505 -2.360932 2.663435 -1.746767 -8.317482 23.682646 -1.579437 -25.452996 -43.270095 -0.006329 -0.512457 1.408096 3.304254 1.192901 -15.917248 3.370455 3.514806 -13.719279 2.007929 2.573741 -5.938047 -3.693979 -0.249704 -8.496344 19.436843 -0.375327 4.364122 6.603899 0.808918 2.788351 0.000000 0.000000 0.000000 -18.821928 -46.310933 -67.994224 158.105631 -32.857450 113.471563 -0.848036 -76.650176 -31.516318 0.000000 0.000000 0.000000 -7.125000 0.000000 0.000000 -35.837902 57.670098 12.145209 0.000000 0.000000 0.000000 11.569974 -42.724240 70.733382 -157.157887 -33.915669 -112.950020 -7.973394 -73.262362 -14.146023 0.000000 0.000000 0.000000 7.125000 0.000000 0.000000 13.256354 15.943948 9.361681
1.039707 17.092186 1.157158 -184.666477 38.236043 -179.578379 0.000000 0.000000 0.000000 -14.257365 -24.010755 -16.955858 2.331178 9.524177 27.449368 -0.211877 -14.128872 -7.180575 1.596191 -7.968747 -22.619228 0.000000 0.000000 0.000000 18.797091 -2.337718 2.282178 -1.737857 -8.297299 23.620691 -1.541380 -25.477292 -43.135884 -0.002749 -0.335889 0.922947 3.092175 0.611131 -16.016691 3.892446 2.756958 -13.614170 2.612306 2.234858 -5.789541 -4.295053 0.148132 -8.460018 19.422234 0.143042 4.609360 6.730107 1.036382 2.786898 0.000000 0.000000 0.000000 -17.698920 -46.044161 -65.316202 158.203863 -32.745789 113.524765 -3.371561 -79.046283 -31.177950 0.000000 0.000000 0.000000 -7.125000 0.000000 0.000000 -37.897928 56.863643 12.213959 0.000000 0.000000 0.000000 11.969229 -41.976668 72.219425 -156.577581 -34.547457 -112.623526 -7.800856 -74.689335 -14.937782 0.000000 0.000000 0.000000 7.125000 0.000000 0.000000 13.339706 15.177684 9.651275
1.031462 17.102928 1.137515 -184.519130 37.914334 -178.884477 0.000000 0.000000 0.000000 -13.935253 -24.416518 -17.663337 2.339981 9.540914 27.502584 -0.239896 -14.233627 -6.877964 1.585898 -7.943992 -22.544269 0.000000 0.000000 0.000000 18.883035 -2.442643 1.742461 -1.707742 -8.228704 23.410942 -1.529285 -25.501819 -43.110491 -0.005490 -0.477996 1.313411 2.944459 0.736552 -15.844365 3.601921 2.864095 -13.417585 2.394607 2.260544 -5.642114 -4.369554 -0.233791 -8.666490 19.459895 -0.415210 4.949423 6.740362 0.799248 2.992792 0.000000 0.000000 0.000000 -17.715130 -45.009802 -64.686183 157.812635 -33.188112 113.311884 -4.298223 -81.647560 -30.504203 0.000000 0.000000 0.000000 -7.125000 0.000000 0.000000 -38.152480 56.135244 11.608394 0.000000 0.000000 0.000000 11.440099 -41.311173 69.746806 -155.426065 -35.765262 -111.960418 -5.337623 -76.044865 -13.850870 0.000000 0.000000 0.000000 7.125000 0.000000 0.000000 15.041293 16.363224 10.568770
